<?xml version="1.0" encoding="utf-8"?>
<?xml-stylesheet type="text/xsl" href="rss1.xsl"?>
<rss version="2.0" xmlns:atom="http://www.w3.org/2005/Atom" xmlns:content="http://purl.org/rss/1.0/modules/content/" xmlns:dc="http://purl.org/dc/elements/1.1/" xmlns:media="http://search.yahoo.com/mrss/">
<channel>
 <title>Getty</title>
 <link>http://www.gettyimg.com/</link>
 <atom:link href="http://www.gettyimg.com/" rel="self" type="application/rss+xml" />

 
                <item>
                <title><![CDATA[【Apple Music】WEB-RiP - Taeyeon - 11:11 (Apple Music 1080p)]]></title>
                <link><![CDATA[https://sharemania.us/threads/taeyeon-11-11-apple-music-1080p.228657/]]></link>
                <description><![CDATA[<article>
<blockquote class="messageText SelectQuoteContainer ugc baseHtml">
<img src="https://images2.imgbox.com/5b/79/4RZG6dmm_o.jpg" class="bbCodeImage LbImage" alt="[​IMG]" data-url="https://images2.imgbox.com/5b/79/4RZG6dmm_o.jpg" style=""> <br>
<br>
<span data-s9e-mediaembed="youtube" style="display:inline-block;width:100%;max-width:640px"><span style="display:block;overflow:hidden;position:relative;padding-bottom:56.25%"><iframe allowfullscreen="" loading="lazy" scrolling="no" style="background:url(https://i.ytimg.com/vi/ulr0muQKjk0/hqdefault.jpg) 50% 50% / cover;border:0;height:100%;left:0;position:absolute;width:100%" src="https://www.youtube.com/embed/ulr0muQKjk0"></iframe></span></span><br>
<br>
<div class="ToggleTriggerAnchor bbCodeSpoilerContainer">
<button type="button" class="button bbCodeSpoilerButton ToggleTrigger Tooltip JsOnly" data-target="> .SpoilerTarget"><span>Spoiler: <span class="SpoilerTitle">Media Info</span></span></button>
<div class="SpoilerTarget bbCodeSpoilerText">Format : MPEG-4<br>
Codec ID : M4V (isom/iso4/M4V /mp42)<br>
File size : 192 MiB<br>
Duration : 3 min 52 s<br>
Overall bit rate mode : Variable<br>
Overall bit rate : 6 937 kb/s<br>
Frame rate : 23.976 FPS<br>
Movie name : 11:11<br>
Performer : TAEYEON<br>
Genre : K-Pop<br>
ContentType : Music Video<br>
Recorded date : 2016-10-31 07:00:00 UTC<br>
Encoded date : 2023-09-06 15:04:23 UTC<br>
Tagged date : 2023-09-06 15:04:23 UTC<br>
Copyright : ℗ 2016 SM Entertainment<br>
Cover : Yes<br>
Rating : None<br>
GenreID : 1686<br>
AppleStoreCountry : United States<br>
AlbumTitleID : 435966642<br>
AppleStoreCatalogID : 1171648142<br>
<br>
Video<br>
ID : 2<br>
Format : AVC<br>
Format/Info : Advanced Video Codec<br>
Format profile : High@L4<br>
Format settings : CABAC / 4 Ref Frames<br>
Format settings, CABAC : Yes<br>
Format settings, Reference : 4 frames<br>
Codec ID : avc1<br>
Codec ID/Info : Advanced Video Coding<br>
Duration : 3 min 52 s<br>
Bit rate : 6 671 kb/s<br>
Maximum bit rate : 17.9 Mb/s<br>
Width : 1 920 pixels<br>
Height : 1 080 pixels<br>
Display aspect ratio : 16:9<br>
Frame rate mode : Constant<br>
Frame rate : 23.976 (23976/1000) FPS<br>
Color space : YUV<br>
Chroma subsampling : 4:2:0<br>
Bit depth : 8 bits<br>
Scan type : Progressive<br>
Bits/(Pixel*Frame) : 0.134<br>
Stream size : 185 MiB (96%)<br>
Title : Core Media Video<br>
Encoded date : 2019-08-13 18:53:10 UTC<br>
Tagged date : 2023-09-06 15:04:23 UTC<br>
Color range : Limited<br>
Color primaries : BT.709<br>
Transfer characteristics : BT.709<br>
Matrix coefficients : BT.709<br>
Codec configuration box : avcC<br>
<br>
Audio<br>
ID : 1<br>
Format : AAC LC<br>
Format/Info : Advanced Audio Codec Low Complexity<br>
Codec ID : mp4a-40-2<br>
Duration : 3 min 52 s<br>
Bit rate mode : Variable<br>
Bit rate : 251 kb/s<br>
Maximum bit rate : 449 kb/s<br>
Channel(s) : 2 channels<br>
Channel layout : L R<br>
Sampling rate : 48.0 kHz<br>
Frame rate : 46.875 FPS (1024 SPF)<br>
Compression mode : Lossy<br>
Stream size : 6.96 MiB (4%)<br>
Title : Core Media Audio<br>
Encoded date : 2019-08-13 18:51:07 UTC<br>
Tagged date : 2023-09-06 15:04:23 UTC</div>
</div><br>
<div class="bbCodeBlock bbCodeVfcHH HiddenContent">
<div class="attribution type">Hidden Content:</div>
<blockquote>You must either reply or click 'Like' to see the hidden information contained here.</blockquote>
</div>
<div class="messageTextEndMarker">&nbsp;</div>
</blockquote>
</article>]]></description>
                <author><![CDATA[Eric Lyn]]></author>
                </item>

                
                <item>
                <title><![CDATA[【Albums (lossless)】FLAC - LANA DEL REY - 2023 - Did you know that there's a tunnel under Ocean Blvd [24bit-48000Hz]]]></title>
                <link><![CDATA[https://sharemania.us/threads/lana-del-rey-2023-did-you-know-that-theres-a-tunnel-under-ocean-blvd-24bit-48000hz.228659/]]></link>
                <description><![CDATA[<article>
<blockquote class="messageText SelectQuoteContainer ugc baseHtml">
<div style="text-align: center"><img src="https://imgur.com/V2uyb5m" class="bbCodeImage LbImage" alt="[​IMG]" data-url="https://imgur.com/V2uyb5m" style=""> <br>
<br>
<b>Performer:</b> <b>Lana Del Rey</b>​</div><b><div style="text-align: center"><b>Album:</b> <b>Did You Know That There’s A Tunnel Under Ocean Blvd<br>
Published:</b> <b>2023<br>
Genre:</b> <b>Pop<br>
File Size:</b> <b>843,6MB</b>​</div></b><br>
<div style="text-align: center">​</div><b><div style="text-align: center"><b>Track listing:</b>​</div></b><br>
<div style="text-align: center">1. The Grants (4:55)<br>
2. Did you know that there's a tunnel under Ocean Blvd (4:45)<br>
3. Sweet (3:35)<br>
4. A&amp;W (7:14)<br>
5. Judah Smith Interlude (4:37)<br>
6. Candy Necklace (5:15)<br>
7. Jon Batiste Interlude (3:33)<br>
8. Kintsugi (6:19)<br>
9. Fingertips (5:48)<br>
10. Paris, Texas (3:27)<br>
11. Grandfather please stand on the shoulders of my father while he's deep-sea fishing (4:00)<br>
12. Let The Light In (4:38)<br>
13. Margaret (5:40)<br>
14. Fishtail (4:03)<br>
15. Peppers (4:09)<br>
16. Taco Truck x VB (5:53)<br>
<br>
<a href="https://filedot.to/byh0mzywxk41" target="_blank" class="externalLink" rel="nofollow"><b>https://filedot.to/byh0mzywxk41</b></a>​</div>
<div class="messageTextEndMarker">&nbsp;</div>
</blockquote>
</article>]]></description>
                <author><![CDATA[XRB80]]></author>
                </item>

                
                <item>
                <title><![CDATA[【Apple Music】WEB-RiP - Girls' Generation - PARTY (Apple Music 1080p)]]></title>
                <link><![CDATA[https://sharemania.us/threads/girls-generation-party-apple-music-1080p.228658/]]></link>
                <description><![CDATA[<article>
<blockquote class="messageText SelectQuoteContainer ugc baseHtml">
<img src="https://images2.imgbox.com/d4/35/DhrM0WQu_o.jpg" class="bbCodeImage LbImage" alt="[​IMG]" data-url="https://images2.imgbox.com/d4/35/DhrM0WQu_o.jpg" style=""> <br>
<br>
<span data-s9e-mediaembed="youtube" style="display:inline-block;width:100%;max-width:640px"><span style="display:block;overflow:hidden;position:relative;padding-bottom:56.25%"><iframe allowfullscreen="" loading="lazy" scrolling="no" style="background:url(https://i.ytimg.com/vi/HQzu7NYlZNQ/hqdefault.jpg) 50% 50% / cover;border:0;height:100%;left:0;position:absolute;width:100%" src="https://www.youtube.com/embed/HQzu7NYlZNQ"></iframe></span></span><br>
<br>
<div class="ToggleTriggerAnchor bbCodeSpoilerContainer">
<button type="button" class="button bbCodeSpoilerButton ToggleTrigger Tooltip JsOnly" data-target="> .SpoilerTarget"><span>Spoiler: <span class="SpoilerTitle">Media Info</span></span></button>
<div class="SpoilerTarget bbCodeSpoilerText">Format : MPEG-4<br>
Codec ID : M4V (isom/iso4/M4V /mp42)<br>
File size : 173 MiB<br>
Duration : 3 min 37 s<br>
Overall bit rate mode : Variable<br>
Overall bit rate : 6 668 kb/s<br>
Frame rate : 23.976 FPS<br>
Movie name : PARTY<br>
Performer : Girls' Generation<br>
Genre : K-Pop<br>
ContentType : Music Video<br>
Recorded date : 2015-07-06 07:00:00 UTC<br>
Encoded date : 2023-09-06 15:09:17 UTC<br>
Tagged date : 2023-09-06 15:09:17 UTC<br>
Copyright : ℗ 2015 SM Entertainment<br>
Cover : Yes<br>
Rating : None<br>
GenreID : 1686<br>
AppleStoreCountry : United States<br>
AlbumTitleID : 357463500<br>
AppleStoreCatalogID : 1016839326<br>
<br>
Video<br>
ID : 2<br>
Format : AVC<br>
Format/Info : Advanced Video Codec<br>
Format profile : High@L4<br>
Format settings : CABAC / 4 Ref Frames<br>
Format settings, CABAC : Yes<br>
Format settings, Reference : 4 frames<br>
Codec ID : avc1<br>
Codec ID/Info : Advanced Video Coding<br>
Duration : 3 min 37 s<br>
Bit rate : 6 385 kb/s<br>
Maximum bit rate : 15.0 Mb/s<br>
Width : 1 920 pixels<br>
Height : 1 080 pixels<br>
Display aspect ratio : 16:9<br>
Frame rate mode : Constant<br>
Frame rate : 23.976 (24000/1001) FPS<br>
Color space : YUV<br>
Chroma subsampling : 4:2:0<br>
Bit depth : 8 bits<br>
Scan type : Progressive<br>
Bits/(Pixel*Frame) : 0.128<br>
Stream size : 165 MiB (96%)<br>
Title : Core Media Video<br>
Encoded date : 2022-04-09 05:54:08 UTC<br>
Tagged date : 2023-09-06 15:09:18 UTC<br>
Color range : Limited<br>
Color primaries : BT.709<br>
Transfer characteristics : BT.709<br>
Matrix coefficients : BT.709<br>
Codec configuration box : avcC<br>
<br>
Audio<br>
ID : 1<br>
Format : AAC LC<br>
Format/Info : Advanced Audio Codec Low Complexity<br>
Codec ID : mp4a-40-2<br>
Duration : 3 min 37 s<br>
Bit rate mode : Variable<br>
Bit rate : 265 kb/s<br>
Maximum bit rate : 353 kb/s<br>
Channel(s) : 2 channels<br>
Channel layout : L R<br>
Sampling rate : 48.0 kHz<br>
Frame rate : 46.875 FPS (1024 SPF)<br>
Compression mode : Lossy<br>
Stream size : 6.73 MiB (4%)<br>
Title : Core Media Audio<br>
Encoded date : 2022-04-09 05:52:14 UTC<br>
Tagged date : 2023-09-06 15:09:18 UTC</div>
</div><br>
<div class="bbCodeBlock bbCodeVfcHH HiddenContent">
<div class="attribution type">Hidden Content:</div>
<blockquote>You must either reply or click 'Like' to see the hidden information contained here.</blockquote>
</div>
<div class="messageTextEndMarker">&nbsp;</div>
</blockquote>
</article>]]></description>
                <author><![CDATA[Eric Lyn]]></author>
                </item>

                
                <item>
                <title><![CDATA[【HD Live Performances】WEB-RiP - BLACKPINK - Born Pink World Tour Finale in Seoul 2023 WEB-DL 1080p H264]]></title>
                <link><![CDATA[https://sharemania.us/threads/blackpink-born-pink-world-tour-finale-in-seoul-2023-web-dl-1080p-h264.228660/]]></link>
                <description><![CDATA[<article>
<blockquote class="messageText SelectQuoteContainer ugc baseHtml">
<img src="https://forevervideo.net/wp-content/uploads/2023/09/m3ybZsrRlx088HfP6ago0104125zXFWr0E1Y0-002.mkv.jpg" class="bbCodeImage LbImage" alt="[​IMG]" data-url="https://forevervideo.net/wp-content/uploads/2023/09/m3ybZsrRlx088HfP6ago0104125zXFWr0E1Y0-002.mkv.jpg" style=""> <br>
<div class="bbCodeBlock bbCodeVfcHH HiddenContent">
<div class="attribution type">Hidden Content:</div>
<blockquote>You must reply before you can see the hidden data contained here.</blockquote>
</div>
<div class="messageTextEndMarker">&nbsp;</div>
</blockquote>
</article>]]></description>
                <author><![CDATA[forevervideo]]></author>
                </item>

                </channel></rss>